# xmcd
#
# Track frame offsets: 
#        150
#        23932
#        36058
#        46179
#        69084
#        85495
#        108236
#        119885
#        140377
#        159737
#
# Disc length: 2304 seconds
#
# Revision: 8
# Processed by: cddbd v1.5.2PL0 Copyright (c) Steve Scherf et al.
# Submitted via: ExactAudioCopyFreeDBPlugin 1.0
#
DISCID=8308fe0a
DTITLE=Duane Allman - An Anthology Vol.II CD2
DYEAR=2008
DGENRE=Blues
TTITLE0=Johnny Jenkins - Walk on Gilded Splinters
TTITLE1=Boz Scaggs - Waiting For a Train
TTITLE2=Ronnie Hawkins - Don't Tell me Your Troubles
TTITLE3=Sam Samudio - Goin' Upstairs
TTITLE4=Delaney and Bonnie - Come on in my Kitchen
TTITLE5=The Allman Brothers Band - Dimples
TTITLE6=The Duck and the Bear - Goin' up The Country
TTITLE7=The Allman Brothers Band - Done Somebody Wrong
TTITLE8=The Allman Brothers Band - Leave my Blues at Home
TTITLE9=The Allman Brothers Band - Midnight Rider
EXTD=
EXTT0=
EXTT1=
EXTT2=
EXTT3=
EXTT4=
EXTT5=
EXTT6=
EXTT7=
EXTT8=
EXTT9=
PLAYORDER=
